<svg xmlns="http://www.w3.org/2000/svg" width="1200" height="540" viewBox="0 0 1200 540" font-family="-apple-system, 'Apple SD Gothic Neo', 'Noto Sans KR', sans-serif">
<defs><marker id="arrO" markerWidth="12" markerHeight="12" refX="10" refY="5" orient="auto"><path d="M0,0 L12,5 L0,10 Z" fill="#ea580c"/></marker></defs>
<rect width="1200" height="540" fill="#fff"/>
<text x="40" y="48" font-size="28" font-weight="700" fill="#111827">6/7 · 역할 ② — 이 사이에 la_log_commit()이 불리면 기준선이 저장값의 하한이 된다 (조건부)</text>
<text x="40" y="88" font-size="16" font-weight="700" fill="#374151">① 로그와 포인터</text>
<line x1="40" y1="177" x2="1160" y2="177" stroke="#374151" stroke-width="3"/>
<rect x="70" y="150" width="104" height="54" rx="7" fill="#fff" stroke="#374151" stroke-width="2"/><text x="122" y="173" font-size="19" font-weight="700" text-anchor="middle" fill="#111827">Q</text><text x="122" y="193" font-size="12" text-anchor="middle" fill="#6b7280">장기 TX 첫 로그</text><rect x="188" y="150" width="104" height="54" rx="7" fill="#fff" stroke="#374151" stroke-width="2"/><text x="240" y="173" font-size="19" font-weight="700" text-anchor="middle" fill="#111827">D0</text><text x="240" y="193" font-size="12" text-anchor="middle" fill="#6b7280">T0 data</text><rect x="306" y="150" width="104" height="54" rx="7" fill="#fff" stroke="#374151" stroke-width="2"/><text x="358" y="173" font-size="19" font-weight="700" text-anchor="middle" fill="#111827">R0</text><text x="358" y="193" font-size="12" text-anchor="middle" fill="#6b7280">target=D0</text><rect x="424" y="150" width="104" height="54" rx="7" fill="#fff" stroke="#374151" stroke-width="2"/><text x="476" y="173" font-size="19" font-weight="700" text-anchor="middle" fill="#111827">C0</text><text x="476" y="193" font-size="12" text-anchor="middle" fill="#6b7280">T0 COMMIT</text><rect x="542" y="150" width="104" height="54" rx="7" fill="#fff" stroke="#374151" stroke-width="2"/><text x="594" y="173" font-size="19" font-weight="700" text-anchor="middle" fill="#111827">D1</text><text x="594" y="193" font-size="12" text-anchor="middle" fill="#6b7280">T1 data</text><rect x="660" y="150" width="104" height="54" rx="7" fill="#fff" stroke="#374151" stroke-width="2"/><text x="712" y="173" font-size="19" font-weight="700" text-anchor="middle" fill="#111827">D2</text><text x="712" y="193" font-size="12" text-anchor="middle" fill="#6b7280">T1 data</text><rect x="778" y="150" width="104" height="54" rx="7" fill="#fff" stroke="#374151" stroke-width="2"/><text x="830" y="173" font-size="19" font-weight="700" text-anchor="middle" fill="#111827">R1</text><text x="830" y="193" font-size="12" text-anchor="middle" fill="#6b7280">target=D1</text><rect x="896" y="150" width="104" height="54" rx="7" fill="#fff" stroke="#374151" stroke-width="2"/><text x="948" y="173" font-size="19" font-weight="700" text-anchor="middle" fill="#111827">R2</text><text x="948" y="193" font-size="12" text-anchor="middle" fill="#6b7280">target=D2</text><rect x="1014" y="150" width="104" height="54" rx="7" fill="#fff" stroke="#374151" stroke-width="2"/><text x="1066" y="173" font-size="19" font-weight="700" text-anchor="middle" fill="#111827">C1</text><text x="1066" y="193" font-size="12" text-anchor="middle" fill="#6b7280">T1 COMMIT</text>
<line x1="476" y1="138" x2="476" y2="150" stroke="#6b7280" stroke-width="2"/><rect x="336" y="104" width="280" height="34" rx="17" fill="#f3f4f6" stroke="#6b7280" stroke-width="2"/><text x="476" y="127" font-size="15" font-weight="700" text-anchor="middle" fill="#6b7280">last_committed_lsa = C0 · 고정</text><line x1="122" y1="226" x2="122" y2="204" stroke="#ea580c" stroke-width="2"/><rect x="40" y="226" width="267" height="34" rx="17" fill="#fff7ed" stroke="#ea580c" stroke-width="2"/><text x="174" y="249" font-size="15" font-weight="700" text-anchor="middle" fill="#ea580c">committed_lsa = Q · 되감긴 값</text><line x1="594" y1="226" x2="594" y2="204" stroke="#ea580c" stroke-width="2"/><rect x="520" y="226" width="147" height="34" rx="17" fill="#fff7ed" stroke="#ea580c" stroke-width="2"/><text x="594" y="249" font-size="15" font-weight="700" text-anchor="middle" fill="#ea580c">final_lsa = D1</text>

<text x="40" y="318" font-size="16" font-weight="700" fill="#374151">② 이 장면에서 바뀐 값</text><rect x="40" y="330" width="1120" height="104" rx="8" fill="#fff7ed" stroke="#fdba74"/><text x="64" y="358" font-size="17" font-weight="700" fill="#9a3412">la_log_commit() 호출</text><text x="440" y="358" font-size="17" fill="#9a3412">트랜잭션 COMMIT과 무관한 경로: la_change_state()의 역할 전환 강제 commit, HA 서버 상태 레코드 처리</text><text x="64" y="386" font-size="17" font-weight="700" fill="#9a3412">la_update_ha_last_applied_info() 비교</text><text x="440" y="386" font-size="17" fill="#9a3412">committed_lsa(Q) &lt; last_committed_lsa(C0) → C0를 대신 저장</text><text x="64" y="418" font-size="14" fill="#6b7280">메모리 committed_lsa는 Q 그대로. 바뀌는 것은 DB에 쓰는 값만이다.</text>
<text x="40" y="458" font-size="16" font-weight="700" fill="#374151">③ DB</text><text x="100" y="458" font-size="15" font-weight="700" fill="#ea580c">_db_ha_apply_info: committed_lsa = C0 유지 (Q로 후퇴하지 않음) · committed_rep_lsa = R0 · required_lsa = Q</text>
<rect x="0" y="476" width="1200" height="64" fill="#0f172a"/>
<text x="600" y="514" font-size="18" font-weight="700" text-anchor="middle" fill="#fff">되감긴 값이 그대로 저장되면 안전 경계가 뒤로 밀린다. 기준선이 그것을 막는다.</text>
</svg>